<?xml version="1.0" encoding="UTF-8"?>
<svg width="184px" height="88px" viewBox="0 0 184 88" version="1.1" xmlns="http://www.w3.org/2000/svg"
        xmlns:xlink="http://www.w3.org/1999/xlink">
        <g fill="#452ea0">
            <rect id="Rectangle-1" x="32" y="0" width="24" height="24" rx="2"></rect>
            <path
                d="M68,2 C66.8954305,2 66,2.8954305 66,4 L66,20 C66,21.1045695 66.8954305,22 68,22 L84,22 C85.1045695,22 86,21.1045695 86,20 L86,4 C86,2.8954305 85.1045695,2 84,2 L68,2 Z M68,0 L84,0 C86.209139,-4.05812251e-16 88,1.790861 88,4 L88,20 C88,22.209139 86.209139,24 84,24 L68,24 C65.790861,24 64,22.209139 64,20 L64,4 C64,1.790861 65.790861,4.05812251e-16 68,0 Z"
                id="Rectangle-2"></path>
            <path
                d="M100,2 C98.8954305,2 98,2.8954305 98,4 L98,20 C98,21.1045695 98.8954305,22 100,22 L116,22 C117.104569,22 118,21.1045695 118,20 L118,4 C118,2.8954305 117.104569,2 116,2 L100,2 Z M100,0 L116,0 C118.209139,-4.05812251e-16 120,1.790861 120,4 L120,20 C120,22.209139 118.209139,24 116,24 L100,24 C97.790861,24 96,22.209139 96,20 L96,4 C96,1.790861 97.790861,4.05812251e-16 100,0 Z"
                id="Rectangle-3"></path>
            <path
                d="M132,2 C130.895431,2 130,2.8954305 130,4 L130,20 C130,21.1045695 130.895431,22 132,22 L148,22 C149.104569,22 150,21.1045695 150,20 L150,4 C150,2.8954305 149.104569,2 148,2 L132,2 Z M132,0 L148,0 C150.209139,-4.05812251e-16 152,1.790861 152,4 L152,20 C152,22.209139 150.209139,24 148,24 L132,24 C129.790861,24 128,22.209139 128,20 L128,4 C128,1.790861 129.790861,4.05812251e-16 132,0 Z"
                id="Rectangle-4"></path>
            <rect id="Rectangle-5" x="160" y="0" width="24" height="24" rx="2"></rect>
            <rect id="Rectangle-6" x="0" y="0" width="24" height="24" rx="2"></rect>
            <path
                d="M36,34 C34.8954305,34 34,34.8954305 34,36 L34,52 C34,53.1045695 34.8954305,54 36,54 L52,54 C53.1045695,54 54,53.1045695 54,52 L54,36 C54,34.8954305 53.1045695,34 52,34 L36,34 Z M36,32 L52,32 C54.209139,32 56,33.790861 56,36 L56,52 C56,54.209139 54.209139,56 52,56 L36,56 C33.790861,56 32,54.209139 32,52 L32,36 C32,33.790861 33.790861,32 36,32 Z"
                id="Rectangle-1"></path>
            <rect id="Rectangle-2" x="64" y="32" width="24" height="24" rx="2"></rect>
            <path
                d="M100,34 C98.8954305,34 98,34.8954305 98,36 L98,52 C98,53.1045695 98.8954305,54 100,54 L116,54 C117.104569,54 118,53.1045695 118,52 L118,36 C118,34.8954305 117.104569,34 116,34 L100,34 Z M100,32 L116,32 C118.209139,32 120,33.790861 120,36 L120,52 C120,54.209139 118.209139,56 116,56 L100,56 C97.790861,56 96,54.209139 96,52 L96,36 C96,33.790861 97.790861,32 100,32 Z"
                id="Rectangle-3"></path>
            <rect id="Rectangle-4" x="128" y="32" width="24" height="24" rx="2"></rect>
            <rect id="Rectangle-5" x="160" y="32" width="24" height="24" rx="2"></rect>
            <rect id="Rectangle-6" x="0" y="32" width="24" height="24" rx="2"></rect>
            <path
                d="M36,66 C34.8954305,66 34,66.8954305 34,68 L34,84 C34,85.1045695 34.8954305,86 36,86 L52,86 C53.1045695,86 54,85.1045695 54,84 L54,68 C54,66.8954305 53.1045695,66 52,66 L36,66 Z M36,64 L52,64 C54.209139,64 56,65.790861 56,68 L56,84 C56,86.209139 54.209139,88 52,88 L36,88 C33.790861,88 32,86.209139 32,84 L32,68 C32,65.790861 33.790861,64 36,64 Z"
                id="Rectangle-1"></path>
            <rect id="Rectangle-2" x="64" y="64" width="24" height="24" rx="2"></rect>
            <path
                d="M100,66 C98.8954305,66 98,66.8954305 98,68 L98,84 C98,85.1045695 98.8954305,86 100,86 L116,86 C117.104569,86 118,85.1045695 118,84 L118,68 C118,66.8954305 117.104569,66 116,66 L100,66 Z M100,64 L116,64 C118.209139,64 120,65.790861 120,68 L120,84 C120,86.209139 118.209139,88 116,88 L100,88 C97.790861,88 96,86.209139 96,84 L96,68 C96,65.790861 97.790861,64 100,64 Z"
                id="Rectangle-3"></path>
            <path
                d="M132,66 C130.895431,66 130,66.8954305 130,68 L130,84 C130,85.1045695 130.895431,86 132,86 L148,86 C149.104569,86 150,85.1045695 150,84 L150,68 C150,66.8954305 149.104569,66 148,66 L132,66 Z M132,64 L148,64 C150.209139,64 152,65.790861 152,68 L152,84 C152,86.209139 150.209139,88 148,88 L132,88 C129.790861,88 128,86.209139 128,84 L128,68 C128,65.790861 129.790861,64 132,64 Z"
                id="Rectangle-4"></path>
            <rect id="Rectangle-5" x="160" y="64" width="24" height="24" rx="2"></rect>
            <rect id="Rectangle-6" x="0" y="64" width="24" height="24" rx="2"></rect>
        </g>
    </svg>